<svg width="463" height="445" viewBox="0 0 463 445" fill="none" xmlns="http://www.w3.org/2000/svg">
<path opacity="0.1" d="M44.8548 158.353C-5.29743 199.262 -10.7777 277.252 18.8496 344.74C27.6039 364.643 40.1018 384.404 57.9535 400.278C79.574 419.5 107.683 431.778 135.392 438.434C177.18 448.47 220.094 446.346 252.369 429.913C284.644 413.48 305.388 382.314 304.446 346.211C303.92 326.117 297.084 304.234 304.045 286.532C314.703 259.436 352.183 253.001 379.442 238.683C398.102 228.881 412.647 214.636 426.943 200.488C443.156 184.448 459.856 167.208 462.32 144.031C464.356 124.834 456.074 103.499 442.772 84.8293C429.47 66.1596 411.445 49.8655 392.488 35.0625C380.59 25.7742 368.043 16.8631 354.215 10.7985C339.775 4.45841 324.397 1.44331 309.613 0.563471C276.217 -1.44008 245.542 7.07169 219.433 20.3565C193.324 33.6413 171.318 51.5785 149.701 69.6274C110.809 102.05 77.0456 120.319 44.8287 158.201L44.8548 158.353Z" fill="#7263FF"/>
</svg>
